<svg xmlns="http://www.w3.org/2000/svg" viewBox="0 0 100 100" width="100" height="100">
  <defs>
    <linearGradient id="grad1" x1="0%" y1="0%" x2="100%" y2="100%">
      <stop offset="0%" style="stop-color:#4CAF50;stop-opacity:1" />
      <stop offset="100%" style="stop-color:#2196F3;stop-opacity:1" />
    </linearGradient>
  </defs>
  
  <!-- Background Circle -->
  <circle cx="50" cy="50" r="45" fill="url(#grad1)" stroke="#fff" stroke-width="2"/>
  
  <!-- Document Icon -->
  <rect x="25" y="20" width="35" height="45" rx="3" ry="3" fill="#fff" opacity="0.9"/>
  <rect x="25" y="20" width="35" height="45" rx="3" ry="3" fill="none" stroke="#333" stroke-width="1.5"/>
  
  <!-- Document Lines -->
  <line x1="30" y1="28" x2="55" y2="28" stroke="#333" stroke-width="1.5"/>
  <line x1="30" y1="33" x2="50" y2="33" stroke="#333" stroke-width="1"/>
  <line x1="30" y1="37" x2="52" y2="37" stroke="#333" stroke-width="1"/>
  <line x1="30" y1="41" x2="48" y2="41" stroke="#333" stroke-width="1"/>
  <line x1="30" y1="45" x2="53" y2="45" stroke="#333" stroke-width="1"/>
  <line x1="30" y1="49" x2="45" y2="49" stroke="#333" stroke-width="1"/>
  <line x1="30" y1="53" x2="50" y2="53" stroke="#333" stroke-width="1"/>
  <line x1="30" y1="57" x2="47" y2="57" stroke="#333" stroke-width="1"/>
  
  <!-- AI Brain Icon -->
  <circle cx="70" cy="70" r="12" fill="#FF9800" stroke="#fff" stroke-width="2"/>
  
  <!-- Brain Pattern -->
  <path d="M65 65 Q70 62 75 65 Q73 70 70 72 Q67 70 65 65" fill="#fff" opacity="0.8"/>
  <path d="M67 72 Q70 75 73 72 Q75 75 70 78 Q65 75 67 72" fill="#fff" opacity="0.8"/>
  
  <!-- Connection Lines -->
  <line x1="60" y1="60" x2="65" y2="65" stroke="#FF9800" stroke-width="2" opacity="0.7"/>
  <line x1="55" y1="55" x2="62" y2="62" stroke="#FF9800" stroke-width="1.5" opacity="0.5"/>
  
  <!-- Checkmark -->
  <circle cx="80" cy="30" r="8" fill="#4CAF50" stroke="#fff" stroke-width="1.5"/>
  <path d="M76 30 L79 33 L84 27" fill="none" stroke="#fff" stroke-width="2" stroke-linecap="round"/>
  
  <!-- Stars for AI -->
  <circle cx="20" cy="30" r="1.5" fill="#FFD700"/>
  <circle cx="85" cy="50" r="1" fill="#FFD700"/>
  <circle cx="15" cy="70" r="1" fill="#FFD700"/>
</svg>